<?xml version="1.0" encoding="UTF-8" standalone="no"?>
<svg
   version="1.1"
   id="Layer_1"
   x="0px"
   y="0px"
   width="100%"
   viewBox="0 0 1024 1024"
   enable-background="new 0 0 1024 1024"
   xml:space="preserve"
   sodipodi:docname="logo.svg"
   inkscape:version="1.3.2 (091e20e, 2023-11-25, custom)"
   xmlns:inkscape="http://www.inkscape.org/namespaces/inkscape"
   xmlns:sodipodi="http://sodipodi.sourceforge.net/DTD/sodipodi-0.dtd"
   xmlns="http://www.w3.org/2000/svg"
   xmlns:svg="http://www.w3.org/2000/svg"><defs
   id="defs1" /><sodipodi:namedview
   id="namedview1"
   pagecolor="#505050"
   bordercolor="#eeeeee"
   borderopacity="1"
   inkscape:showpageshadow="0"
   inkscape:pageopacity="0"
   inkscape:pagecheckerboard="0"
   inkscape:deskcolor="#d1d1d1"
   inkscape:zoom="0.48925781"
   inkscape:cx="512"
   inkscape:cy="512"
   inkscape:window-width="1366"
   inkscape:window-height="697"
   inkscape:window-x="-8"
   inkscape:window-y="-8"
   inkscape:window-maximized="1"
   inkscape:current-layer="layer1" />
  
<g
   inkscape:groupmode="layer"
   id="layer1"
   inkscape:label="circle"><ellipse
     style="fill:#ffffff;stroke-width:1.50204"
     id="path8"
     cx="524.26349"
     cy="559.01001"
     rx="454.77045"
     ry="393.45309" /></g><g
   id="g18"><path
   fill="currentColor"
   opacity="1"
   stroke="none"
   d="m 427.1347,135.79639 c 9.17025,-7.99045 17.29364,-8.14783 26.06322,-0.33819 12.53012,11.15855 25.00194,22.39603 37.12811,33.9842 5.64433,5.39386 11.17607,7.33526 19.24522,5.92574 13.25601,-2.31564 26.83559,-1.79136 40.09308,0.81681 4.87665,0.95939 8.0788,-0.42793 11.40882,-3.46983 13.04841,-11.91909 26.18616,-23.74149 39.32835,-35.55828 1.65561,-1.48864 3.42849,-2.90404 5.32759,-4.05909 11.88866,-7.23094 24.82727,-1.48963 26.69516,12.22704 1.80309,13.23996 2.96375,26.57127 4.20898,39.88076 1.53497,16.40746 2.82069,32.83797 4.338,49.24718 0.20161,2.17979 0.86427,4.41106 1.76253,6.41943 19.88287,44.4597 15.9054,86.77008 -11.5416,126.92147 -2.01252,2.94407 -2.2887,5.23608 -0.65527,8.50555 8.83113,17.67664 12.78019,36.49557 12.73765,56.21545 -0.11226,52.01439 -0.13887,104.0289 -0.2595,156.04324 -0.008,3.55296 -0.15514,7.17679 -0.86074,10.64184 -1.38551,6.80435 -6.96693,11.74162 -14.1551,12.37859 -6.79948,0.60253 -12.27521,-2.04925 -15.74303,-8.1123 -2.63222,-4.60219 -3.16405,-9.65033 -3.16569,-14.86855 -0.017,-54.02398 -0.1048,-108.048 -0.15094,-162.07197 -0.009,-10.50292 -3.04079,-20.11156 -8.34357,-29.97858 -22.51459,13.44074 -45.79786,22.72811 -72.19861,22.90812 -26.50061,0.18058 -50.27359,-7.25798 -72.01573,-23.20615 -5.82627,9.86305 -7.89656,19.96334 -7.92214,30.49983 -0.10525,43.3083 -0.16943,86.61733 0.0254,129.9249 0.0249,5.53842 -1.62547,8.1784 -6.98249,10.21245 -19.80391,7.5193 -32.61236,27.05121 -30.71806,45.70093 2.10881,20.76118 19.56111,39.2826 40.32274,43.13425 6.91901,1.28375 13.82098,0.94409 20.76147,1.04695 5.24255,0.0777 6.87511,-1.91703 6.82432,-7.1346 -0.26304,-27.00976 -0.18161,-54.02279 -0.20744,-81.03476 -0.012,-12.50144 -0.0623,-25.0034 0.0292,-37.50417 0.0844,-11.55033 6.98192,-19.85387 16.46026,-20.05346 10.00266,-0.21063 17.89176,8.53294 17.91466,20.24221 0.0759,38.84361 0.18076,77.68832 -0.085,116.53029 -0.0446,6.53189 2.02541,8.79562 8.44885,8.26389 5.56837,-0.46076 11.20851,-0.29625 16.80612,-0.10172 4.6072,0.16001 6.37006,-1.64728 6.29031,-6.29878 -0.21417,-12.49779 -0.0626,-25.00164 -0.0859,-37.50303 -0.051,-27.45784 -0.13509,-54.91561 -0.17475,-82.3735 -0.0159,-10.9786 7.01472,-18.49202 17.07195,-18.34901 9.26802,0.13185 16.38376,8.06229 16.46268,18.35944 0.30287,39.50596 0.60377,79.01192 0.90196,118.51793 0.0166,2.20722 0.002,4.41453 0.002,6.96648 6.18166,1.55186 11.98351,0.5314 17.69748,0.74809 7.15319,0.27138 14.35565,-0.62887 21.45471,0.90345 8.44934,1.82381 13.77758,8.61719 13.66975,17.40128 -0.0992,8.07607 -5.19191,13.97542 -13.82537,15.57217 -3.50051,0.64743 -7.11582,0.93697 -10.68006,0.94621 -48.87764,0.12723 -97.75558,0.17809 -146.6334,0.24547 -50.15634,0.0691 -88.56147,-41.06817 -83.80579,-90.72263 2.20953,-23.06981 12.80385,-42.1546 32.72604,-55.10229 4.08306,-2.65359 4.88187,-5.74243 4.87916,-10.02841 -0.0215,-33.709 0.24555,-67.41877 0.0949,-101.1269 -0.0908,-20.32975 2.00673,-40.11292 12.07156,-58.27269 2.74797,-4.95808 -0.7344,-8.11891 -2.99791,-11.42652 -9.58056,-13.99973 -16.49348,-29.12745 -20.05222,-45.70134 -4.96874,-23.1409 -2.89903,-46.1917 5.81639,-67.71071 6.51706,-16.09114 7.1423,-32.474 8.87185,-48.99286 1.99515,-19.05533 3.66517,-38.14423 5.57815,-57.20843 0.31331,-3.12215 1.53299,-6.04028 3.74146,-9.02289 m 122.85468,73.53195 c -10.8172,-2.43955 -21.78008,-2.47383 -32.76941,-1.90412 -37.18728,1.92793 -69.75298,28.29091 -79.02109,63.93509 -1.83221,7.0465 -0.85851,8.7336 6.29204,10.10353 8.34849,1.59937 16.74556,2.94709 25.09343,4.54936 4.04515,0.77639 7.32392,2.63098 6.94722,7.48813 -0.36689,4.73052 -3.42031,7.07547 -7.84389,7.74948 -1.9751,0.30091 -4.032,0.2505 -6.03852,0.13357 -7.14801,-0.41631 -14.29606,-0.85908 -21.4332,-1.42716 -6.37543,-0.50753 -7.3506,2.39675 -5.29834,7.68383 1.76967,0 3.31832,0.1058 4.84839,-0.0174 8.92443,-0.71837 17.83381,-1.70354 26.77084,-2.14946 4.12748,-0.20593 8.31301,0.74379 9.00178,6.00216 0.64956,4.95882 -1.85208,8.15285 -6.42708,9.65229 -2.53643,0.83134 -5.25767,1.08612 -7.86709,1.71765 -6.66738,1.61359 -13.55141,2.45682 -19.90423,5.03654 5.07543,30.30743 51.3221,59.34244 90.56931,57.24077 36.70673,-1.96563 78.95637,-31.98717 80.45635,-57.42709 -8.8216,-3.07575 -18.21051,-4.09907 -27.23816,-6.53929 -4.24314,-1.14695 -7.27801,-3.85025 -6.65954,-8.70976 0.61568,-4.83862 3.9526,-6.47997 8.57795,-6.62147 8.56275,-0.26186 16.98425,0.97756 25.40459,2.1311 7.45367,1.02115 8.39062,0.0131 6.34608,-8.24107 -0.9767,-0.0651 -2.05932,-0.25814 -3.12496,-0.18938 -9.15272,0.59081 -18.29534,1.51626 -27.4557,1.73682 -4.89537,0.11787 -9.68612,-1.39131 -9.86531,-7.61294 -0.16663,-5.7872 3.93592,-7.17696 8.81347,-7.98862 10.54972,-1.7555 21.04188,-3.85377 31.38268,-5.77927 1.13354,-2.94182 0.0165,-5.23906 -0.62997,-7.54286 -9.73845,-34.70501 -34.01508,-53.83018 -68.92734,-63.01043 m 54.19513,-12.11362 c 2.8381,0.38362 2.05785,-1.83747 1.96678,-3.07513 -0.41744,-5.66903 -1.04117,-11.32297 -1.66867,-17.78346 -5.01403,4.01606 -9.10583,7.81333 -12.68411,12.33684 3.3223,3.9413 7.87891,5.48574 12.386,8.52175 m -143.21342,-5.42598 c 1.68587,-1.0705 2.83626,-2.35507 1.12776,-4.24082 -2.62245,-2.89456 -5.08121,-6.0254 -10.13795,-8.10268 -0.94183,6.28432 -2.94339,11.71317 -1.81521,18.64937 3.67981,-2.15382 6.85844,-4.01431 10.8254,-6.30587 z"
   id="path1"
   style="stroke-width:1.34259" /><path
   fill="currentColor"
   opacity="1"
   stroke="none"
   d="m 726.69884,543.17543 c -13.38306,-15.8969 -30.29857,-23.97706 -50.36219,-25.98747 -1.77453,-0.1778 -3.56695,-0.45238 -5.27807,-0.93743 -9.26425,-2.62611 -14.45428,-9.01234 -13.59453,-16.59613 0.83684,-7.38108 7.61522,-13.36559 16.55343,-14.06723 12.43585,-0.97609 24.65112,0.3729 36.32847,4.93617 35.96648,14.05525 57.03258,40.56325 64.42926,77.90226 1.11146,5.6109 3.69448,7.04846 8.43365,8.34152 35.8189,9.77315 59.9491,31.69012 68.08383,68.39854 11.00033,49.63966 -25.51087,99.84383 -76.54441,106.39773 -16.76096,2.15244 -33.5978,0.8018 -50.38724,0.82691 -147.54329,0.22077 -295.08703,0.35733 -442.63032,0.19183 -45.38762,-0.0509 -79.84252,-30.7265 -88.34829,-75.21678 -8.9428,-46.77625 19.77953,-88.68564 67.34756,-100.72357 5.82344,-1.4737 8.60233,-3.58452 9.87322,-10.13121 8.30481,-42.78049 41.16571,-74.07069 84.47072,-80.59686 8.30603,-1.25174 16.94388,-1.80825 25.44602,-0.63414 9.6811,1.33684 16.74675,8.44651 16.51701,16.42306 -0.22494,7.8091 -7.99585,14.76128 -17.68718,15.25957 -13.06952,0.67196 -25.9708,1.97002 -37.76933,8.18788 -24.87165,13.10742 -37.83575,33.94694 -39.83904,61.68561 -0.36893,5.10866 -0.34122,10.28607 0.0168,15.39612 0.45817,6.5377 -1.74339,11.59893 -7.76307,14.20141 -6.08764,2.63193 -12.12136,1.44728 -16.73825,-3.25196 -3.1771,-3.23381 -6.14894,-3.43005 -10.20497,-2.31974 -23.03295,6.30532 -38.17744,24.34611 -39.69167,47.63227 -1.59167,24.47687 11.86653,46.64347 33.87287,55.69371 7.09586,2.91811 14.38364,4.55591 22.19689,4.55133 158.30719,-0.0929 316.61537,-0.35029 474.92091,0.16002 32.18174,0.10368 52.86564,-22.88624 58.1125,-42.78594 7.64995,-29.01395 -11.07145,-59.99081 -40.42642,-66.38419 -3.24322,-0.70631 -6.11976,-0.44236 -8.51282,2.36871 -2.88993,3.39474 -6.83349,5.02108 -11.23956,5.3372 -7.1311,0.51169 -12.58704,-4.33407 -12.78742,-11.45657 -0.24465,-8.69538 0.34762,-17.46369 -0.56936,-26.07934 -1.45186,-13.64253 -7.50254,-25.58693 -16.22904,-36.72329 z"
   id="path2"
   style="stroke-width:1.34259" /><path
   fill="currentColor"
   opacity="1"
   stroke="none"
   d="m 494.1278,895.40151 c -20.65109,-15.70494 -30.71038,-35.65974 -24.77976,-61.008 5.49105,-23.4694 20.73088,-39.07999 44.56507,-44.27556 24.13341,-5.26075 45.16617,1.466 60.19071,21.60633 13.99167,18.75585 15.89086,39.65801 5.77762,60.67922 -9.16389,19.048 -24.88575,29.75542 -46.3214,32.07753 -14.14894,1.53273 -27.15929,-0.86002 -39.43224,-9.07952 m 17.28712,-67.08306 c -9.99773,9.93595 -11.82715,20.07737 -5.53405,30.6789 5.78337,9.74281 17.1356,14.44051 27.6464,11.46525 10.23445,-2.89718 16.58759,-9.56449 18.62967,-19.88049 1.88498,-9.52195 -2.76107,-18.81864 -11.79816,-24.35518 -9.67913,-5.92968 -19.11879,-5.05689 -28.94386,2.09152 z"
   id="path3"
   style="stroke-width:1.34259" /><path
   fill="currentColor"
   opacity="1"
   stroke="none"
   d="m 415.06676,843.20311 c 17.06341,1.60019 21.48029,14.83127 16.92442,24.89952 -2.74961,6.07661 -7.53584,9.35604 -14.24297,9.36406 -38.75033,0.0466 -77.50099,0.0736 -116.25111,-0.0357 -7.86523,-0.0222 -13.80058,-5.32362 -15.59612,-13.13926 -1.71732,-7.47516 1.787,-14.93143 8.69841,-18.4677 4.3006,-2.20036 8.91983,-2.67804 13.68483,-2.67248 35.39067,0.0416 70.78141,0.0278 106.78254,0.0516 z"
   id="path4"
   style="stroke-width:1.34259" /><path
   fill="currentColor"
   opacity="1"
   stroke="none"
   d="m 760.70379,864.14387 c -3.15821,9.98672 -7.38658,13.32078 -17.10661,13.34179 -34.91324,0.0755 -69.82672,0.0928 -104.73997,0.0314 -9.34743,-0.0165 -16.20374,-5.84341 -17.37991,-14.32374 -1.20105,-8.65939 4.27394,-16.59638 13.31613,-18.99428 2.34149,-0.62094 4.84404,-0.88783 7.27365,-0.89396 32.89892,-0.0833 65.79825,-0.13965 98.69726,-0.095 13.02804,0.0177 20.10444,7.35995 19.93945,20.9338 z"
   id="path5"
   style="stroke-width:1.34259" /><path
   fill="currentColor"
   opacity="1"
   stroke="none"
   d="m 398.81033,816.61282 c -14.91071,-7.61768 -20.33175,-17.35281 -18.48834,-32.57632 1.37693,-11.37111 9.94645,-20.79364 21.61104,-23.76221 11.99032,-3.0513 24.50584,1.98049 31.39208,12.62119 7.58523,11.72076 6.92553,24.24447 -1.85796,35.27912 -7.07455,8.88761 -20.80508,12.59126 -32.65682,8.43822 M 415.17225,793.87 c 2.34758,-3.89956 2.42424,-7.64834 -1.20491,-10.77856 -2.37284,-2.04663 -5.21418,-2.67648 -8.02571,-0.75732 -3.90574,2.66601 -6.21017,6.11782 -3.2888,10.70373 3.17288,4.98077 7.34577,5.25551 12.51942,0.83215 z"
   id="path6"
   style="stroke-width:1.34259" /><path
   fill="currentColor"
   opacity="1"
   stroke="none"
   d="m 616.72671,806.55128 c -10.58849,-16.32131 -6.30781,-35.18959 9.44936,-43.38652 15.43087,-8.02716 34.11844,-1.44597 41.15124,14.49226 5.59646,12.68292 0.90491,28.68485 -10.57863,36.08143 -13.14367,8.46594 -28.00166,5.92036 -40.02197,-7.18717 m 16.1677,-19.30655 c -0.65436,4.59024 0.94252,7.9925 5.64039,9.07665 4.19888,0.96902 7.67976,-0.64081 9.04112,-4.82043 1.27192,-3.90487 0.44642,-7.76429 -3.63027,-9.64018 -4.88715,-2.24893 -8.62935,-0.59633 -11.05124,5.38396 z"
   id="path7"
   style="stroke-width:1.34259" /><path
   fill="currentColor"
   opacity="1"
   stroke="none"
   d="m 514.72284,319.12356 c 5.81787,-8.0282 4.92896,-14.16511 -2.15171,-19.46449 -4.24955,-3.18045 -6.56148,-7.41702 -4.89479,-12.815 1.60739,-5.206 6.0203,-6.11268 10.74813,-6.16951 6.72097,-0.0808 13.44481,-0.0255 20.16316,-0.19583 5.02315,-0.1274 8.99948,1.375 10.24948,6.61108 1.29459,5.42256 0.19857,10.20198 -5.07785,13.28595 -6.29697,3.68043 -7.14604,14.59304 -1.41736,19.39817 3.63091,3.04568 6.99673,2.75736 9.41166,-1.59568 2.61578,-4.71528 5.72193,-8.32816 11.70511,-5.25633 5.18797,2.66362 7.26084,10.09196 4.6292,15.79502 -5.47113,11.85654 -21.90023,16.13766 -33.46031,8.66569 -2.05013,-1.3252 -3.9273,-2.91553 -6.20408,-4.62328 -5.12204,3.45262 -10.05173,7.21195 -16.53775,8.03588 -10.05025,1.27675 -20.43474,-5.01307 -23.00454,-14.38773 -1.52203,-5.55224 -0.62213,-10.58861 4.92715,-13.08794 5.30948,-2.39137 9.51776,0.11107 12.40275,4.91122 0.57011,0.94851 1.18964,1.86749 1.73708,2.72302 2.60162,0.85377 4.4574,-0.51236 6.77467,-1.83024 z"
   id="path14"
   style="stroke-width:1.34259" /><path
   fill="currentColor"
   opacity="1"
   stroke="none"
   d="m 568.61182,238.69805 c 12.16796,-0.92614 21.12252,5.61017 22.38279,15.84951 1.44257,11.72084 -4.3238,19.62548 -15.78435,21.63716 -10.5351,1.84921 -19.65498,-4.18517 -22.17181,-14.67067 -2.29731,-9.57069 3.61433,-18.48684 15.57337,-22.816 z"
   id="path15"
   style="stroke-width:1.34259" /><path
   fill="currentColor"
   opacity="1"
   stroke="none"
   d="m 472.53023,242.27078 c 9.13371,-5.53645 18.20847,-4.7555 24.85084,1.78703 6.44298,6.34612 7.52365,16.16668 2.62799,23.88106 -4.63262,7.29965 -13.84968,10.5205 -22.31425,7.7976 -13.91649,-4.47684 -16.77829,-21.56324 -5.16458,-33.46569 z"
   id="path16"
   style="stroke-width:1.34259" />
    </g></svg>
